<svg height="179" viewBox="0 0 562 179" width="562" xmlns="http://www.w3.org/2000/svg"><g fill="none" fill-rule="evenodd"><path d="m404.014 144.77c-11.188 10.22-24.607 16.337-38.07 18.22 7.673-10.186 13.777-21.087 18.292-32.338a46.65 46.65 0 0 1 -4.948-7.457c-4.358-8.148-6.68-17.17-6.68-33.822v-13.973c0-16.652 2.322-25.673 6.68-33.82 4.357-8.15 10.752-14.544 18.9-18.902s17.17-6.678 33.822-6.678h70.59c16.652 0 25.673 2.32 33.82 6.678 8.15 4.358 14.544 10.753 18.902 18.9 4.358 8.152 6.678 17.172 6.678 33.824v13.973c0 16.652-2.32 25.674-6.678 33.822s-10.753 14.543-18.9 18.9c-8.15 4.358-17.17 6.68-33.823 6.68h-70.59c-12.833 0-21.134-1.38-27.996-4.006z" fill="#25547d"/><g stroke="#fcfcfc" stroke-width="4"><rect fill="#e04a6e" height="46.188" rx="10" width="25.413" x="412.574" y="84.04"/><rect fill="#f9cd69" height="92.376" rx="10" width="25.413" x="453.234" y="37.852"/><rect fill="#56d3a0" height="69.282" rx="10" width="25.413" x="493.894" y="60.946"/></g><path d="m158.053 36.027c0 4.688-.83 9.457-2.49 14.307s-3.923 9.635-6.788 14.355c-2.864 4.72-6.217 9.26-10.058 13.623a125.98 125.98 0 0 1 -12.207 12.11 109.17 109.17 0 0 1 -13.38 9.91c-4.622 2.898-9.114 5.193-13.476 6.886a155.455 155.455 0 0 0 -2.685-3.76 214.43 214.43 0 0 0 -3.468-4.59 482.276 482.276 0 0 0 -3.76-4.786 158.73 158.73 0 0 0 -3.662-4.443c9.31-3.645 17.66-7.975 25.05-12.988 7.388-5.013 13.67-10.27 18.847-15.77 5.175-5.502 9.147-11.07 11.914-16.7 2.768-5.632 4.15-10.89 4.15-15.772 0-.65-.097-1.334-.292-2.05a4.618 4.618 0 0 0 -.977-1.856c-.454-.52-1.056-.895-1.805-1.123-.75-.227-1.644-.21-2.686.05-3.06.65-6.43 1.855-10.108 3.613-3.68 1.758-7.552 3.955-11.62 6.592-4.07 2.636-8.302 5.68-12.697 9.13a298.18 298.18 0 0 0 -13.33 11.135c-2.408 7.553-5.175 15.544-8.3 23.975a484.876 484.876 0 0 1 -10.157 25.195 454.55 454.55 0 0 1 -11.474 24.366c-4.004 7.877-8.073 15.087-12.207 21.63s-8.268 12.207-12.403 16.993c-4.134 4.785-8.12 8.22-11.963 10.302-.975.52-2.163 1.008-3.563 1.464s-3.14.78-5.225.977c-.78.066-1.71-.26-2.783-.976-1.075-.716-2.165-1.627-3.272-2.734a47.59 47.59 0 0 1 -3.32-3.71 174.017 174.017 0 0 1 -3.077-3.907 47.324 47.324 0 0 1 -2.343-3.32 119.935 119.935 0 0 1 -1.22-1.954c-.52-.977-.798-2.133-.83-3.468a14.75 14.75 0 0 1 .44-3.955c1.3-4.362 3.124-9.147 5.468-14.355s5.094-10.66 8.252-16.358c3.157-5.696 6.673-11.556 10.547-17.578a308.28 308.28 0 0 1 12.5-17.968 370.334 370.334 0 0 1 14.061-17.629 297.32 297.32 0 0 1 15.186-16.6c3.32-10.353 6.054-20.15 8.203-29.395 2.148-9.245 3.418-17.285 3.81-24.122a37.197 37.197 0 0 1 7.42 4.004c2.344 1.628 4.46 3.32 6.348 5.078s3.548 3.516 4.98 5.274c1.433 1.757 2.572 3.32 3.418 4.686a64.647 64.647 0 0 1 -.487 3.37 49.996 49.996 0 0 1 -.78 3.662c6.575-4.232 13.036-7.536 19.384-9.912 6.347-2.377 12.516-3.565 18.506-3.565 1.237 0 2.587.392 4.052 1.173 1.465.78 2.946 1.807 4.444 3.076a44.36 44.36 0 0 1 4.344 4.247 48.845 48.845 0 0 1 3.76 4.737c1.107 1.595 2.002 3.092 2.686 4.492.683 1.4 1.058 2.555 1.123 3.466v1.465zm-141.407 122.753c1.498 0 3.516-1.66 6.055-4.98 2.54-3.32 5.39-7.844 8.546-13.573 3.158-5.73 6.494-12.403 10.01-20.02s7-15.69 10.45-24.22c-5.144 6.12-9.913 12.176-14.308 18.165-4.394 5.99-8.203 11.67-11.425 17.04-3.223 5.372-5.746 10.32-7.57 14.845-1.822 4.525-2.733 8.382-2.733 11.572 0 .78.325 1.17.976 1.17zm281.852-28.867c1.196-1.142 2.51-2.39 3.94-3.75a101.16 101.16 0 0 0 5.76-5.956 63.348 63.348 0 0 0 5.372-6.934 33.98 33.98 0 0 0 3.955-8.007 32.81 32.81 0 0 1 1.22-4.737 34.675 34.675 0 0 1 1.857-4.542c.683-1.367 1.35-2.506 2.002-3.418.65-.91 1.236-1.367 1.757-1.367.783.456 1.954 1.318 3.517 2.588a103.96 103.96 0 0 1 4.687 4.054 133.126 133.126 0 0 1 4.15 3.955c1.205 1.203 1.807 1.936 1.807 2.196-.78 2.995-1.154 5.697-1.122 8.106a51.78 51.78 0 0 0 .586 7.128c.358 2.344.75 4.834 1.172 7.47.423 2.638.635 5.68.635 9.132 0 2.083-.34 4.476-1.024 7.178a19.246 19.246 0 0 1 -3.565 7.275c3.322-1.953 6.61-4.15 9.864-6.592 3.256-2.44 6.153-4.736 8.692-6.884a254.47 254.47 0 0 0 8.594-7.62l4.394 4.787a583.53 583.53 0 0 1 -6.982 6.445 200.626 200.626 0 0 1 -7.813 6.738 168.59 168.59 0 0 1 -8.253 6.348 93.85 93.85 0 0 1 -8.3 5.37c-2.735 1.563-5.372 2.8-7.91 3.712-2.54.91-4.916 1.367-7.13 1.367-1.888 0-3.97-.456-6.25-1.367a37.646 37.646 0 0 1 -6.445-3.32c-2.018-1.303-3.776-2.67-5.273-4.102-1.5-1.432-2.378-2.637-2.638-3.613 0-.13.13-.407.39-.83.26-.424.57-.863.928-1.32.358-.454.716-.86 1.075-1.22.358-.358.634-.537.83-.537.39 0 1.17.293 2.343.88 1.172.585 3.125.878 5.86.878 1.497 0 2.783-.39 3.857-1.172 1.074-.78 1.97-1.823 2.686-3.125.717-1.303 1.238-2.8 1.563-4.493a28.41 28.41 0 0 0 .488-5.37c0-2.735-.13-5.388-.39-7.96a225.37 225.37 0 0 0 -.878-7.47 69.55 69.55 0 0 1 -3.81 4.1 267.432 267.432 0 0 1 -4.344 4.25c-1.465 1.4-2.93 2.766-4.395 4.1a438.132 438.132 0 0 1 -3.955 3.565l-.06-.06a411.568 411.568 0 0 1 -3.553 3.43 176.06 176.06 0 0 1 -6.983 6.298 275.082 275.082 0 0 1 -7.812 6.445 109.4 109.4 0 0 1 -7.91 5.762c-2.572 1.693-4.964 3.06-7.178 4.102-2.214 1.04-4.07 1.56-5.566 1.56-2.02 0-4.15-.715-6.397-2.147a38.476 38.476 0 0 1 -6.3-5.03c-1.953-1.92-3.613-3.857-4.98-5.81s-2.15-3.418-2.344-4.395c-.13-.39-.195-.862-.195-1.416v-1.806c0-.363.006-.736.016-1.12a187.376 187.376 0 0 1 -4.36 3.854 275.082 275.082 0 0 1 -7.814 6.445 109.4 109.4 0 0 1 -7.91 5.762c-2.57 1.693-4.964 3.06-7.177 4.102-2.214 1.04-4.07 1.56-5.567 1.56-2.018 0-4.15-.715-6.396-2.147a38.476 38.476 0 0 1 -6.3-5.03c-1.952-1.92-3.612-3.857-4.98-5.81-1.367-1.953-2.148-3.418-2.343-4.395-.132-.39-.197-.862-.197-1.416v-1.806c0-.68.018-1.397.054-2.152-2.215 1.48-4.43 2.687-6.645 3.616a38.047 38.047 0 0 1 -8.057 2.393 47.685 47.685 0 0 1 -8.4.732 60.693 60.693 0 0 1 -7.127 6.446 58.7 58.7 0 0 1 -7.764 5.08c-2.637 1.43-5.257 2.538-7.86 3.32-2.606.78-5.08 1.17-7.423 1.17-1.952 0-3.97-.585-6.054-1.757a25.227 25.227 0 0 1 -5.664-4.345c-1.693-1.726-3.092-3.565-4.2-5.518-1.106-1.953-1.66-3.678-1.66-5.176 0-4.948.668-9.863 2.003-14.746a47.104 47.104 0 0 1 6.25-13.72c2.832-4.265 6.445-8.025 10.84-11.28 4.394-3.255 9.618-5.73 15.673-7.422.196-.13.537-.228 1.026-.293a9.537 9.537 0 0 1 1.22-.097c.912 0 1.872.34 2.88 1.025 1.01.685 1.954 1.45 2.833 2.296.88.846 1.612 1.676 2.197 2.49.586.814.88 1.35.88 1.612-.13.325-.62.732-1.465 1.22-.848.488-1.987 1.32-3.42 2.49-1.432 1.172-3.124 2.85-5.078 5.03-1.953 2.18-4.1 5.062-6.445 8.642-3.516 5.274-5.892 10.043-7.13 14.307-1.236 4.264-1.854 7.568-1.854 9.912 0 1.952.716 2.93 2.148 2.93 1.5 0 3.484-1.19 5.958-3.566s5.046-5.387 7.715-9.033a16.07 16.07 0 0 1 -.244-1.903 25.96 25.96 0 0 1 -.05-1.514c0-1.302.147-2.848.44-4.64.293-1.79 1.025-3.823 2.197-6.102a36.677 36.677 0 0 1 2.832-5.175c.91-1.497 2.017-3.11 3.32-4.834a40.36 40.36 0 0 1 4.296-4.833l.586-.586a253.01 253.01 0 0 1 5.81 7.277 101.42 101.42 0 0 1 2.833 3.857c.813 1.172 1.318 1.986 1.513 2.44 0 2.8-.504 5.6-1.513 8.4-1.01 2.8-2.36 5.566-4.053 8.3 3.906-.26 7.536-1.253 10.888-2.978 2.203-1.133 4.47-2.737 6.797-4.81l.137-.854c.814-4.98 1.904-10.254 3.272-15.82a233.947 233.947 0 0 1 4.736-16.602c1.79-5.5 3.662-10.368 5.615-14.6 3.97-8.658 8.057-16.34 12.256-23.046 4.2-6.706 8.317-12.55 12.353-17.53 4.037-4.98 7.91-9.163 11.622-12.548 3.71-3.386 7.047-6.12 10.01-8.203 2.962-2.084 5.468-3.58 7.52-4.493 2.05-.91 3.466-1.367 4.247-1.367 1.237.456 2.49 1.123 3.76 2.002 1.27.88 2.457 1.807 3.564 2.783a35.288 35.288 0 0 1 2.93 2.88c.845.945 1.464 1.645 1.854 2.1.52.522.863 1.026 1.026 1.514.162.49.244 1.123.244 1.905 0 1.562-.39 3.71-1.172 6.445-.78 2.734-2.246 6.2-4.395 10.4-2.148 4.2-5.127 9.23-8.935 15.088-3.81 5.86-8.773 12.696-14.893 20.508a404.852 404.852 0 0 1 -9.083 11.133c-2.734 3.256-5.892 6.804-9.472 10.645a220.5 220.5 0 0 1 -11.036 11.036c-1.89 7.162-3.207 13.477-3.956 18.946-.748 5.47-1.123 9.733-1.123 12.793 0 2.017.164 3.32.49 3.905.325.586.78.88 1.367.88 1.04 0 2.457-.457 4.248-1.368 1.79-.912 3.76-2.067 5.908-3.467s4.395-2.946 6.738-4.64a182.416 182.416 0 0 0 6.593-4.98 258 258 0 0 0 6.594-5.395c.046-.298.095-.6.144-.903.815-4.98 1.906-10.254 3.273-15.82a233.947 233.947 0 0 1 4.736-16.602c1.79-5.5 3.66-10.368 5.614-14.6 3.972-8.658 8.057-16.34 12.256-23.046 4.2-6.706 8.317-12.55 12.354-17.53 4.036-4.98 7.91-9.163 11.62-12.548 3.712-3.386 7.048-6.12 10.01-8.203 2.963-2.084 5.47-3.58 7.52-4.493 2.05-.91 3.467-1.367 4.248-1.367 1.237.456 2.49 1.123 3.76 2.002 1.27.88 2.458 1.807 3.564 2.783a35.288 35.288 0 0 1 2.93 2.88c.847.945 1.465 1.645 1.856 2.1.52.522.862 1.026 1.025 1.514.163.49.244 1.123.244 1.905 0 1.562-.39 3.71-1.17 6.445-.782 2.734-2.247 6.2-4.395 10.4-2.15 4.2-5.127 9.23-8.936 15.088-3.81 5.86-8.774 12.696-14.893 20.508a404.852 404.852 0 0 1 -9.082 11.133c-2.735 3.256-5.892 6.804-9.473 10.645a220.5 220.5 0 0 1 -11.035 11.036c-1.888 7.162-3.207 13.477-3.955 18.946-.75 5.47-1.123 9.733-1.123 12.793 0 2.017.16 3.32.487 3.905.325.586.78.88 1.367.88 1.042 0 2.458-.457 4.248-1.368 1.79-.912 3.76-2.067 5.908-3.467 2.15-1.4 4.395-2.946 6.74-4.64a182.416 182.416 0 0 0 6.59-4.98c2.05-1.627 3.89-3.124 5.518-4.49 1.115-.938 2.032-1.707 2.75-2.307zm-69.156-50.33a208.16 208.16 0 0 0 -3.076 7.226 272.808 272.808 0 0 0 -2.686 6.932c2.018-2.278 3.857-4.46 5.518-6.543a796.142 796.142 0 0 0 4.248-5.372 139.394 139.394 0 0 0 3.71-4.98c4.558-6.38 8.497-12.24 11.817-17.578 3.32-5.34 6.055-10.043 8.203-14.112 2.15-4.07 3.727-7.454 4.736-10.156 1.01-2.702 1.514-4.64 1.514-5.81 0-.326-.016-.57-.05-.733-.03-.164-.21-.245-.536-.245-.586 0-1.92.96-4.004 2.88-2.083 1.92-4.638 4.965-7.666 9.132-3.027 4.166-6.412 9.488-10.156 15.966-3.743 6.478-7.6 14.274-11.572 23.39zm53.027 0a208.157 208.157 0 0 0 -3.077 7.226 272.805 272.805 0 0 0 -2.686 6.932c2.02-2.278 3.858-4.46 5.518-6.543a796.142 796.142 0 0 0 4.248-5.372 139.392 139.392 0 0 0 3.71-4.98c4.558-6.38 8.497-12.24 11.817-17.578 3.32-5.34 6.055-10.043 8.204-14.112 2.148-4.07 3.727-7.454 4.736-10.156 1.01-2.702 1.514-4.64 1.514-5.81 0-.326-.017-.57-.05-.733-.032-.164-.21-.245-.536-.245-.586 0-1.92.96-4.004 2.88s-4.64 4.965-7.666 9.132c-3.028 4.166-6.413 9.488-10.157 15.966-3.742 6.478-7.6 14.274-11.57 23.39z" fill="#25547d"/></g></svg>